<?xml version="1.0" standalone="no"?>
<!DOCTYPE svg PUBLIC "-//W3C//DTD SVG 20010904//EN"
 "http://www.w3.org/TR/2001/REC-SVG-20010904/DTD/svg10.dtd">
<svg version="1.0" xmlns="http://www.w3.org/2000/svg"
 width="220.000000pt" height="220.000000pt" viewBox="0 0 220.000000 220.000000"
 preserveAspectRatio="xMidYMid meet">
<metadata>
Created by potrace 1.14, written by Peter Selinger 2001-2017
</metadata>
<g transform="translate(0.000000,220.000000) scale(0.100000,-0.100000)"
fill="#000000" stroke="none">
<path d="M1077 2195 c-1 -2 -39 -5 -85 -8 -45 -3 -86 -8 -90 -11 -4 -2 -23 -7
-42 -10 -91 -14 -243 -77 -350 -144 -225 -142 -407 -393 -476 -657 -36 -135
-41 -353 -12 -489 47 -219 147 -404 306 -561 93 -93 124 -112 146 -89 9 8 16
20 16 25 0 6 -36 44 -81 86 -225 214 -334 464 -333 763 1 157 21 254 84 401
92 217 268 403 485 511 147 74 284 105 455 105 284 0 522 -99 725 -301 183
-182 284 -410 299 -669 5 -78 9 -87 41 -87 30 0 35 17 31 110 -25 485 -406
915 -891 1005 -61 11 -221 25 -228 20z"/>
<path d="M786 1844 c-3 -9 -6 -103 -6 -209 l0 -193 -82 0 c-134 0 -136 0 -143
-22 -9 -27 11 -50 41 -50 l24 0 1 -232 c2 -271 1 -258 24 -329 63 -191 234
-318 439 -324 176 -6 327 73 421 219 67 105 72 137 78 526 2 133 2 134 26 140
36 8 50 36 29 57 -14 13 -37 17 -115 17 l-98 1 -5 199 c-4 174 -7 200 -22 210
-13 8 -21 7 -33 -4 -12 -13 -15 -51 -16 -211 l-2 -196 -246 1 -246 1 -2 193
c-1 199 -6 222 -43 222 -10 0 -21 -7 -24 -16z m348 -630 c3 -8 -12 -51 -34
-94 -22 -43 -37 -85 -34 -93 3 -10 22 -13 67 -11 76 2 104 -3 111 -22 7 -18
-112 -261 -131 -268 -18 -7 -40 3 -47 20 -3 8 13 53 36 99 23 46 39 87 35 91
-3 4 -41 7 -84 8 -117 2 -118 7 -42 158 34 68 66 126 71 129 15 10 46 -1 52
-17z"/>
<path d="M2116 894 c-23 -22 -20 -61 5 -75 17 -8 24 -8 34 3 23 23 27 55 10
72 -20 20 -29 20 -49 0z"/>
<path d="M2075 752 c-4 -4 -22 -40 -41 -81 -69 -149 -193 -304 -322 -401 -139
-104 -396 -203 -486 -186 -64 12 -93 67 -91 171 1 59 2 60 34 66 37 8 42 11
45 36 8 45 -8 52 -114 52 -54 0 -101 -3 -104 -8 -11 -18 -14 -61 -4 -67 6 -4
25 -10 41 -13 l31 -7 1 -91 c2 -98 12 -125 64 -172 49 -44 111 -53 206 -31 28
6 57 13 65 15 26 6 164 58 175 66 6 4 36 21 68 38 118 62 268 198 353 319 61
87 136 237 132 264 -3 21 -40 42 -53 30z"/>
</g>
</svg>
